<svg xmlns="http://www.w3.org/2000/svg" width="55.273" height="65.497" viewBox="0 0 55.273 65.497">
  <g id="dollar-bag" transform="translate(0)">
    <g id="Group_680" data-name="Group 680" transform="translate(19.012 21.593)">
      <path id="Path_560" data-name="Path 560" d="M1588.178,1009.816v1.777a10.135,10.135,0,0,1,3.015.72,5.94,5.94,0,0,1,2.193,1.64,6.963,6.963,0,0,1,1.141,1.729,3.949,3.949,0,0,1,.405,1.624,1.957,1.957,0,0,1-.6,1.42,2,2,0,0,1-1.458.6,2.045,2.045,0,0,1-2.086-1.742,3.713,3.713,0,0,0-2.612-2.722v6.83c1.364.371,2.437.709,3.246,1.015a6.911,6.911,0,0,1,2.161,1.332,6.214,6.214,0,0,1,1.568,2.161,6.818,6.818,0,0,1,.55,2.75,7.269,7.269,0,0,1-.881,3.506,6.9,6.9,0,0,1-2.585,2.669,9.126,9.126,0,0,1-4.059,1.23v4.1a3.744,3.744,0,0,1-.188,1.409.805.805,0,0,1-.824.443.926.926,0,0,1-.832-.36,2.075,2.075,0,0,1-.236-1.117v-4.438a10.286,10.286,0,0,1-3.361-.9,7.972,7.972,0,0,1-2.4-1.707,7.29,7.29,0,0,1-1.42-2.137,5.64,5.64,0,0,1-.462-2.177,1.962,1.962,0,0,1,.617-1.42,2.042,2.042,0,0,1,1.533-.636,2.212,2.212,0,0,1,1.254.344,1.786,1.786,0,0,1,.7.975c.3.9.556,1.581.771,2.057a3.972,3.972,0,0,0,1,1.31,4.481,4.481,0,0,0,1.769.9v-7.638a19.992,19.992,0,0,1-3.681-1.359,6.191,6.191,0,0,1-2.4-2.121,7.059,7.059,0,0,1,.875-8.183,8.049,8.049,0,0,1,5.2-2.1v-1.742c0-.918.341-1.38,1.031-1.38S1588.178,1008.917,1588.178,1009.816Zm-2.081,11.271v-6.3a5.7,5.7,0,0,0-2.151,1.085,3.05,3.05,0,0,0-.053,4A6.691,6.691,0,0,0,1586.1,1021.086Zm2.081,4.87v7.192a4.437,4.437,0,0,0,2.564-1.326,3.36,3.36,0,0,0,.907-2.333,2.805,2.805,0,0,0-.88-2.207A7.156,7.156,0,0,0,1588.178,1025.957Z" transform="translate(-1578.457 -1008.471)" fill="#fff"/>
    </g>
    <g id="Group_681" data-name="Group 681" transform="translate(10.844 0)">
      <path id="Path_561" data-name="Path 561" d="M1597.914,1017.092h-11.432a2.68,2.68,0,0,1-2.008-.907l-8.384-9.482a2.681,2.681,0,0,1,2.008-4.462c.263,0,.263,0,.715-.346a6.154,6.154,0,0,1,7.974,0c.451.346.451.346.709.346s.263,0,.714-.346a6.159,6.159,0,0,1,7.974,0c.451.349.451.349.714.349s.269,0,.719-.349a6.17,6.17,0,0,1,7.979,0c.457.349.457.349.719.349a2.686,2.686,0,0,1,2.013,4.465l-8.4,9.482a2.7,2.7,0,0,1-2.014.9Zm-10.221-5.369h9.015l5.2-5.874a.553.553,0,0,0-.3-.051c-.263,0-.263,0-.72.349a6.174,6.174,0,0,1-7.984,0c-.446-.347-.446-.347-.7-.347s-.263,0-.714.349a6.159,6.159,0,0,1-7.974,0c-.451-.347-.451-.347-.714-.347a.571.571,0,0,0-.3.049l5.2,5.877Z" transform="translate(-1575.414 -1000.428)" fill="#fff"/>
    </g>
    <g id="Group_682" data-name="Group 682" transform="translate(0 11.816)">
      <path id="Path_562" data-name="Path 562" d="M1599.013,1058.51c-12,0-20.75-2.194-23.7-3.67-5.863-2.931-3.646-7.93-2.916-9.573a6.633,6.633,0,0,0,.325-.8c.062-.427.2-2.935.33-5.356.462-8.419.94-16.248,1.716-19.545,1.326-5.63,13.26-12.457,16.89-14.417a2.669,2.669,0,0,1,1.273-.322h12.164a2.656,2.656,0,0,1,1.275.322c3.629,1.96,15.574,8.79,16.9,14.42.765,3.278,1.243,11.067,1.7,19.446.131,2.462.271,5.01.347,5.493a6.187,6.187,0,0,0,.319.765c.722,1.64,2.932,6.637-2.921,9.565-2.631,1.316-12.806,3.67-23.7,3.67Zm-5.4-48.312c-6.288,3.474-13.12,8.449-13.622,10.6-.736,3.106-1.265,12.809-1.579,18.605-.2,3.67-.293,5.321-.408,5.992a8.536,8.536,0,0,1-.7,2.04c-.87,1.96-.845,1.973.408,2.6,1.313.655,8.774,3.1,21.3,3.1,10.551,0,19.805-2.357,21.3-3.1,1.254-.626,1.275-.636.411-2.6a8.58,8.58,0,0,1-.7-2.051c-.115-.663-.209-2.344-.414-6.081-.314-5.769-.845-15.421-1.568-18.511-.5-2.124-7.452-7.187-13.622-10.6Z" transform="translate(-1571.375 -1004.829)" fill="#fff"/>
    </g>
  </g>
</svg>
